<svg xmlns="http://www.w3.org/2000/svg" width="24" height="24"><path data-name="Rectangle 532" fill="none" d="M0 0h24v24H0z"/><path data-name="Union 17" d="M12.513 19.937a4.119 4.119 0 0 1 .524-4.6 4.894 4.894 0 0 1 5.676-1.255 4.287 4.287 0 0 1 2.554 4.9 4.607 4.607 0 0 1-4.559 3.4 4.719 4.719 0 0 1-4.195-2.445Zm3.46-4.073v2.573a.286.286 0 0 0 .138.232l1.389.83a.32.32 0 0 0 .3.014.262.262 0 0 0 .162-.242.269.269 0 0 0-.139-.246l-1.251-.748v-2.413a.285.285 0 0 0-.3-.281.29.29 0 0 0-.304.281ZM4.406 18.789a1.785 1.785 0 0 1-1.211-.467 1.558 1.558 0 0 1-.508-1.133L2.613 3.264A1.661 1.661 0 0 1 4.327 1.65l6.903-.039.016 2.619a2.252 2.252 0 0 0 2.321 2.159h.016l2.807-.011.032 6.731a5.077 5.077 0 0 0-4.981 4.917 4.345 4.345 0 0 0 .058.723l-7.086.04Zm4.52-7.166a.289.289 0 0 0 .3.271h1.01a.277.277 0 1 0 0-.552H9.227a.29.29 0 0 0-.3.282Zm-3.9 0a.282.282 0 0 0 .291.271h2.632a.277.277 0 1 0 0-.552H5.321a.284.284 0 0 0-.292.282Zm0-2.37a.283.283 0 0 0 .291.278h8.409a.288.288 0 0 0 .3-.278.3.3 0 0 0-.3-.281H5.321a.29.29 0 0 0-.292.282Zm8.57-3.617a1.588 1.588 0 0 1-1.083-.419 1.386 1.386 0 0 1-.465-1.016l-.009-2.009 3.728 3.442-2.154.003Z" fill="currentColor"/></svg>
