<svg data-name="Icon/solid/Problems" xmlns="http://www.w3.org/2000/svg" width="24" height="23.999" viewBox="0 0 24 23.999"><path data-name="Rectangle 537" style="fill:none" d="M0 0h24v23.999H0z"/><path d="M.794 22.222A.793.793 0 0 1 0 21.428V3.969a.793.793 0 0 1 .794-.794h2.381V.794A.793.793 0 0 1 3.969 0h14.286a.793.793 0 0 1 .792.794v7.937h2.381a.793.793 0 0 1 .794.792v11.9a.793.793 0 0 1-.794.794Zm.794-1.587h19.048v-1.588H1.589Zm0-5.556h1.587V7.143H1.589Zm9.887-6.348h5.985V1.589H4.762v1.586H6.35a.8.8 0 0 1 .331.072.775.775 0 0 1 .27.206L9.4 6.3h5.68a.793.793 0 1 1 0 1.587h-4.326Zm-.364-3.969a.793.793 0 0 1-.562-1.354.794.794 0 0 1 .562-.232h3.969a.793.793 0 0 1 .562 1.354.786.786 0 0 1-.562.232Z" transform="translate(.974 .802)" style="fill:#434343"/></svg>
