<svg xmlns="http://www.w3.org/2000/svg" width="14" height="14" viewBox="0 0 14 14"><defs><style>.a{fill:none;}.b{fill:#262626;}</style></defs><rect class="a" width="14" height="14"/><g transform="translate(1.556)"><path class="b" d="M1.695,14A1.716,1.716,0,0,1,0,12.279V1.721A1.716,1.716,0,0,1,1.695,0H8.024a.279.279,0,0,1,.12.03c.015,0,.015.015.03.015.015.015.045.03.06.046l2.58,2.94c.015.015.015.03.03.046s.015.03.03.03c0,.03.015.076.015.107v9.064A1.716,1.716,0,0,1,9.194,14ZM.57,1.706V12.279a1.132,1.132,0,0,0,1.125,1.143h7.5a1.136,1.136,0,0,0,1.125-1.158V3.5H8.024a.287.287,0,0,1-.285-.289V.564H1.695A1.132,1.132,0,0,0,.57,1.706ZM8.309,2.94H9.974l-1.665-1.9ZM2.025,11.075a.289.289,0,0,1,0-.579h2.5a.3.3,0,0,1,.285.289.287.287,0,0,1-.285.289Zm0-1.386a.289.289,0,0,1,0-.579H8.714a.289.289,0,0,1,0,.579Zm0-1.417a.289.289,0,0,1,0-.579H8.714A.278.278,0,0,1,9,7.983a.287.287,0,0,1-.285.289Zm0-1.417a.289.289,0,0,1,0-.579H8.714A.278.278,0,0,1,9,6.566a.287.287,0,0,1-.285.289Zm0-1.432a.289.289,0,0,1,0-.579H8.714a.289.289,0,0,1,0,.579Zm0-1.919a.289.289,0,0,1,0-.579h2.5a.278.278,0,0,1,.285.289A.287.287,0,0,1,4.53,3.5Z"/></g></svg>
