<svg xmlns="http://www.w3.org/2000/svg" width="24" height="24"><g data-name="Group 1"><path data-name="Rectangle 3" fill="none" d="M0 0h24v24H0z"/></g><g data-name="Group 7"><g data-name="Group 6"><g data-name="Group 2"><path data-name="Path 3" d="M16.67 13.13A4.651 4.651 0 0 1 19 17v3h4v-3c0-2.18-3.57-3.47-6.33-3.87Z" fill="#fff" fill-rule="evenodd"/></g><g data-name="Group 3" transform="translate(5 4)"><circle data-name="Ellipse 1" cx="4" cy="4" r="4" fill="#fff"/></g><g data-name="Group 4"><path data-name="Path 4" d="M15 12a4 4 0 0 0 0-8 4.178 4.178 0 0 0-1.33.24 5.98 5.98 0 0 1 0 7.52A4.178 4.178 0 0 0 15 12Z" fill="#fff" fill-rule="evenodd"/></g><g data-name="Group 5"><path data-name="Path 5" d="M9 13c-2.67 0-8 1.34-8 4v3h16v-3c0-2.66-5.33-4-8-4Z" fill="currentColor" fill-rule="evenodd"/></g></g></g></svg>
