<svg xmlns="http://www.w3.org/2000/svg" width="30" height="30" viewBox="0 0 30 30"><defs><style>.a{fill:#8c8c8c;}</style></defs><path class="a" d="M26.536,24.568a15.011,15.011,0,1,0-23.05,0l-.021.018c.075.09.161.167.238.256.1.11.2.214.3.321.3.326.609.639.933.932.1.09.2.174.3.259.343.3.7.576,1.061.838.047.032.09.074.137.107v-.013a14.915,14.915,0,0,0,17.155,0V27.3c.047-.033.089-.075.137-.107q.547-.394,1.061-.838c.1-.086.2-.17.3-.259.324-.295.633-.606.933-.932.1-.107.2-.211.3-.321.076-.089.163-.166.238-.257ZM15.011,6.43A4.823,4.823,0,1,1,11.6,7.842,4.828,4.828,0,0,1,15.011,6.43ZM6.441,24.568a5.355,5.355,0,0,1,5.353-5.282h6.433a5.355,5.355,0,0,1,5.353,5.282,12.81,12.81,0,0,1-17.14,0Z" transform="translate(0 0)"/></svg>
