<svg data-name="Group 16" xmlns="http://www.w3.org/2000/svg" width="22.746" height="26.16"><defs><clipPath id="a"><path data-name="Rectangle 28" fill="#28ace3" d="M0 0h22.746v26.16H0z"/></clipPath></defs><g data-name="Group 15" clip-path="url(#a)"><path data-name="Path 16" d="M20.576 25.716c-.435.462-1.008.583-1.274.269s-2.928-2.281-3.516-2.042a13.529 13.529 0 0 1-4.383.913C4.455 24.856 0 20.02 0 12.457S4.514 0 11.461 0c6.859 0 11.285 4.807 11.285 12.311a18.99 18.99 0 0 1-.847 4.94 12.571 12.571 0 0 1-.809 1.9c-.25.443-1.139 2.1-.865 2.359s.762.713 1.085 1.011.934 1.419.5 1.881Zm-7.36-9.432c.453-.444 1.049-.57 1.323-.28s2.009 1.348 2.279.773a11.2 11.2 0 0 0 .887-4.32c0-2.931-.733-5.188-2.169-6.624a5.726 5.726 0 0 0-4.162-1.641c-3.928 0-6.361 3.136-6.361 8.207s2.491 8.3 6.39 8.3a3.936 3.936 0 0 0 .989-.067c.6-.2.756-.682.345-1.061s-1.168-1.668-.715-2.112Z" fill="#28ace3"/></g></svg>
