<svg xmlns="http://www.w3.org/2000/svg" width="20" height="16"><path d="M12.069 2.746a3.441 3.441 0 0 1 1.691 2.567 3.045 3.045 0 0 0 1.24.264 2.863 2.863 0 0 0 2.933-2.788 2.937 2.937 0 0 0-5.864-.042Zm-1.921 5.709a2.864 2.864 0 0 0 2.933-2.788 2.864 2.864 0 0 0-2.933-2.788 2.864 2.864 0 0 0-2.934 2.788 2.864 2.864 0 0 0 2.934 2.788Zm1.244.19H8.9a3.671 3.671 0 0 0-3.756 3.57v2.895l.008.045.21.062a17.912 17.912 0 0 0 5.109.783 10.942 10.942 0 0 0 4.459-.8l.2-.094h.021v-2.89a3.67 3.67 0 0 0-3.759-3.571Zm4.853-2.879h-2.47a3.362 3.362 0 0 1-1.116 2.394 4.277 4.277 0 0 1 3.188 4.06v.892a10.538 10.538 0 0 0 3.936-.786l.2-.094H20V9.337a3.671 3.671 0 0 0-3.755-3.57ZM5 5.577a3.025 3.025 0 0 0 1.56-.43 3.423 3.423 0 0 1 1.365-2.2c0-.052.008-.1.008-.157A2.863 2.863 0 0 0 5 0a2.863 2.863 0 0 0-2.933 2.789A2.863 2.863 0 0 0 5 5.577Zm2.635 2.584A3.365 3.365 0 0 1 6.52 5.78c-.092-.006-.182-.013-.276-.013H3.756A3.671 3.671 0 0 0 0 9.337v2.894l.008.045.21.063a18.429 18.429 0 0 0 4.229.756v-.875a4.278 4.278 0 0 1 3.188-4.059Z" fill="currentColor"/></svg>
