<svg xmlns="http://www.w3.org/2000/svg" width="18" height="18" viewBox="0 0 18 18"><defs><style>.a{fill:none;}.b{fill:#28ace3;}</style></defs><g transform="translate(-34 -23)"><rect class="a" width="18" height="18" transform="translate(34 23)"/><path class="b" d="M1.029,18A1.08,1.08,0,0,1,0,16.875v-4.5H2.057V15.75H13.371V12.375h2.057v4.5A1.079,1.079,0,0,1,14.4,18Zm6.3-4.692-3.6-4.5a.6.6,0,0,1-.081-.6.514.514,0,0,1,.468-.33H6.171V.562A.54.54,0,0,1,6.686,0H8.743a.54.54,0,0,1,.514.563V7.875h2.057a.512.512,0,0,1,.468.33.6.6,0,0,1-.081.6l-3.6,4.5a.485.485,0,0,1-.773,0Z" transform="translate(35.285 23)"/></g></svg>
