<svg id="Icon_solid_camera" data-name="Icon/solid/camera" xmlns="http://www.w3.org/2000/svg" width="18" height="18" viewBox="0 0 18 18"><path id="Rectangle_550" data-name="Rectangle 550" fill="none" d="M0 0h18v18H0z"/><path id="Icon_solid_camera-2" data-name="Icon/solid/camera" d="M2.153 14.4A2.146 2.146 0 0 1 0 12.248v-7.59A2.146 2.146 0 0 1 2.153 2.5H4.03L5.068.94A2.157 2.157 0 0 1 6.847 0h4.305a2.157 2.157 0 0 1 1.779.94L13.97 2.5h1.877A2.146 2.146 0 0 1 18 4.658v7.591a2.146 2.146 0 0 1-2.153 2.151Zm1.994-6.612A4.853 4.853 0 1 0 9 2.955a4.851 4.851 0 0 0-4.853 4.833Zm9.958-2.915a.635.635 0 0 0 .607.664h.86a.619.619 0 0 0 .588-.664.636.636 0 0 0-.665-.608h-.783a.638.638 0 0 0-.606.608ZM6.3 7.807A2.7 2.7 0 1 1 9 10.488a2.7 2.7 0 0 1-2.7-2.681Z" transform="translate(0 1.286)" fill="#8c8c8c"/></svg>
