<svg xmlns="http://www.w3.org/2000/svg" width="24" height="24" viewBox="0 0 24 24"><defs><style>.a{fill:none;}.b{fill:#28ace3;}</style></defs><rect class="a" width="24" height="24"/><path class="b" d="M-7695.244,22807a1.759,1.759,0,0,1-1.758-1.758v-16.48a1.761,1.761,0,0,1,1.758-1.76h8.789v4.1a.569.569,0,0,0,.566.586h4.118v2.539l-3.967,3.951a2.333,2.333,0,0,0-.563.914l-.56,1.676a1.468,1.468,0,0,0,.2,1.318,1.468,1.468,0,0,0,1.188.609l.284-.014,1.863-.623a2.278,2.278,0,0,0,.911-.562l.644-.627v4.371a1.772,1.772,0,0,1-1.773,1.758Zm5.254-3.008a.586.586,0,0,0,.586.588h3.516a.586.586,0,0,0,.587-.588.587.587,0,0,0-.587-.584h-3.516A.587.587,0,0,0-7689.99,22803.988Zm-4.668-3.514a.585.585,0,0,0,.586.586h5.841a.586.586,0,0,0,.586-.586.586.586,0,0,0-.586-.586h-5.841A.585.585,0,0,0-7694.658,22800.475Zm0-2.346a.586.586,0,0,0,.586.588h5.841a.586.586,0,0,0,.586-.588.587.587,0,0,0-.586-.584h-5.841A.586.586,0,0,0-7694.658,22798.129Zm0-2.342a.585.585,0,0,0,.586.586h5.841a.586.586,0,0,0,.586-.586.587.587,0,0,0-.586-.586h-5.841A.587.587,0,0,0-7694.658,22795.787Zm0-2.344a.584.584,0,0,0,.586.584h8.184a.584.584,0,0,0,.587-.584.584.584,0,0,0-.587-.584h-8.184A.584.584,0,0,0-7694.658,22793.443Zm8.908,7.693.51-1.529,1.39,1.389-1.529.512a.324.324,0,0,1-.094.014A.293.293,0,0,1-7685.75,22801.137Zm1.2-2.494,3.858-3.859,1.665,1.664-3.859,3.859Zm4.688-4.686.851-.854a1.177,1.177,0,0,1,.832-.326,1.175,1.175,0,0,1,.831.326,1.176,1.176,0,0,1,0,1.662c-.063.064-.385.387-.852.855Zm2.519.807s0,0,0,0S-7677.343,22794.764-7677.342,22794.764Zm.005,0-.005,0Zm0,0S-7677.333,22794.754-7677.336,22794.76Zm-7.977-4.246V22787h.1a1.8,1.8,0,0,1,1.254.516l1.657,1.658a1.738,1.738,0,0,1,.515,1.24v.1Z" transform="translate(7699.001 -22784.996)"/></svg>
