<svg data-name="Icon/solid/avatar" xmlns="http://www.w3.org/2000/svg" width="23.999" height="24" viewBox="0 0 23.999 24"><path d="M21.227 19.654a12.008 12.008 0 1 0-18.439 0l-.017.015c.06.072.129.134.19.2.077.088.16.171.24.257.24.261.487.511.746.746.079.072.16.139.24.207.274.237.557.461.849.67.038.026.072.059.11.086v-.01a11.93 11.93 0 0 0 13.723 0v.01c.038-.027.071-.06.11-.086q.437-.315.849-.67c.08-.069.161-.136.24-.207.259-.236.506-.485.746-.746.08-.086.162-.169.24-.257.061-.071.13-.133.19-.206Zm-9.219-14.51a3.858 3.858 0 1 1-2.729 1.13 3.862 3.862 0 0 1 2.729-1.13Zm-6.856 14.51a4.284 4.284 0 0 1 4.283-4.225h5.146a4.284 4.284 0 0 1 4.283 4.225 10.247 10.247 0 0 1-13.711 0Z" style="fill:#434343"/></svg>
