<svg data-name="Icon/line/CSV" xmlns="http://www.w3.org/2000/svg" width="14" height="14.002"><path data-name="Rectangle 509" fill="none" d="M0 .002h14v14H0z"/><path data-name="Union 13" d="M2.246 14A.249.249 0 0 1 2 13.748V12h-.753A.25.25 0 0 1 1 11.75v-4a.25.25 0 0 1 .247-.25H2V.252A.249.249 0 0 1 2.246 0h7a.248.248 0 0 1 .157.057l.021.018 2.5 2.5a.207.207 0 0 1 .028.037.245.245 0 0 1 .048.142V7.5h.747a.251.251 0 0 1 .253.249v4a.251.251 0 0 1-.253.252H12v1.746a.25.25 0 0 1-.252.252Zm.252-.5h9V12h-9Zm10-2V8H1.5v3.5h11Zm-1-4V3H9.25A.251.251 0 0 1 9 2.754V.5H2.5v7Zm-2-5h1.649L9.5.853ZM6.247 11A.254.254 0 0 1 6 10.752a.247.247 0 0 1 .252-.248H7.5V10h-1a.5.5 0 0 1-.5-.5V9a.5.5 0 0 1 .5-.5h1.247a.25.25 0 1 1 0 .5H6.5v.5h1a.5.5 0 0 1 .5.5v.5a.5.5 0 0 1-.5.5Zm-2 0a.755.755 0 0 1-.751-.752v-1a.751.751 0 0 1 .753-.748h.5a.751.751 0 0 1 .747.752.25.25 0 0 1-.5 0A.25.25 0 0 0 4.749 9h-.5A.251.251 0 0 0 4 9.253v1a.254.254 0 0 0 .252.252h.5A.254.254 0 0 0 5 10.252a.25.25 0 1 1 .5 0 .754.754 0 0 1-.751.748Zm5.015-.164-.752-2a.252.252 0 0 1 .472-.174l.518 1.374.519-1.373a.252.252 0 0 1 .322-.148.256.256 0 0 1 .145.322l-.751 2a.252.252 0 0 1-.468 0ZM3.75 6a.247.247 0 0 1-.25-.249.252.252 0 0 1 .25-.251h6.5a.25.25 0 0 1 .247.252.246.246 0 0 1-.247.248Zm0-1.5a.25.25 0 1 1 0-.5h6.5a.25.25 0 0 1 0 .5Z" fill="#28ace3"/></svg>
