<svg xmlns="http://www.w3.org/2000/svg" width="24" height="24" viewBox="0 0 24 24"><defs><style>.a{fill:none;}.b{fill:#28ace3;}</style></defs><rect class="a" width="24" height="24"/><path class="b" d="M16.429,2H2.714A1.781,1.781,0,0,0,1,3.837v9.8a1.781,1.781,0,0,0,1.714,1.837H4.429v3.061a.618.618,0,0,0,.323.552.541.541,0,0,0,.605-.073l4.129-3.539h6.942a1.781,1.781,0,0,0,1.714-1.837v-9.8A1.781,1.781,0,0,0,16.429,2ZM9.571,10.571H5A.614.614,0,0,1,5,9.347H9.571a.614.614,0,0,1,0,1.224Zm4.571-2.449H5A.614.614,0,0,1,5,6.9h9.143a.614.614,0,0,1,0,1.224Z" transform="translate(2.429 1.429)"/></svg>