<svg data-name="Icon/solid/QuestionUser" xmlns="http://www.w3.org/2000/svg" width="24" height="24"><path data-name="Rectangle 542" fill="none" d="M0 0h24v24H0z"/><path data-name="Union 21" d="m12.377 22 2.961-2.99a.939.939 0 0 0 .2-.991L13.548 12h.252a7.246 7.246 0 0 1 7.2 7.273v1.818a.907.907 0 0 1-.9.909ZM3.9 22a.906.906 0 0 1-.9-.909v-1.818A7.246 7.246 0 0 1 10.2 12h.252l-1.989 6.018a.939.939 0 0 0 .2.991A628.766 628.766 0 0 0 11.631 22Zm6.426-3.881v-.009L12 13.054l1.673 5.055v.009L12 19.809ZM7.5 6.545a4.5 4.5 0 1 1 4.5 4.546 4.523 4.523 0 0 1-4.5-4.546Z" fill="currentColor"/></svg>
