<svg xmlns="http://www.w3.org/2000/svg" width="24" height="24" viewBox="0 0 24 24" fill="currentColor"><path data-name="Rectangle 556" style="fill:none" d="M0 0h24v24H0z"/><path data-name="Union 21" d="m10.8 23.98-10-2A1 1 0 0 1 0 21V1C0 .98.013.962.015.942a.7.7 0 0 1 0-.088A1 1 0 0 1 .09.62C.1.594.1.564.118.538A1 1 0 0 1 .384.221C.392.215.395.2.4.2S.451.18.473.167a.994.994 0 0 1 .29-.124A.962.962 0 0 1 .9.02.739.739 0 0 1 1 0h16a1 1 0 0 1 1 1v6a1 1 0 0 1-2 0V2H7.814l3.474 1.042A1 1 0 0 1 12 4v16h4v-5a1 1 0 0 1 2 0v6a1 1 0 0 1-1 1h-5v1a1 1 0 0 1-1 1 .983.983 0 0 1-.2-.02Zm8.489-9.273a1 1 0 0 1 0-1.414L20.587 12H15a1 1 0 0 1 0-2h5.586l-1.292-1.294a1 1 0 0 1 1.415-1.414l3 3a1.015 1.015 0 0 1 .217.325 1.005 1.005 0 0 1-.217 1.091l-3 3a1 1 0 0 1-1.415 0Z"/></svg>
