<svg data-name="Icon/solid/AnswerUser" xmlns="http://www.w3.org/2000/svg" width="24" height="24"><path data-name="Rectangle 543" fill="none" d="M0 0h24v24H0z"/><path data-name="Union 22" d="M12.585 12.141a14.778 14.778 0 0 1 7.656-1.9.586.586 0 0 1 .586.585v.586a2.346 2.346 0 0 0-2.344 2.344V16.1a2.346 2.346 0 0 0 2.344 2.344v.585a.586.586 0 0 1-.586.586A13.738 13.738 0 0 0 12.585 22Zm-8.827 7.476a.586.586 0 0 1-.586-.586v-.585A2.346 2.346 0 0 0 5.516 16.1v-2.342a2.346 2.346 0 0 0-2.344-2.343v-.587a.586.586 0 0 1 .586-.585 14.775 14.775 0 0 1 7.655 1.9V22a13.737 13.737 0 0 0-7.655-2.383Zm15.9-3.515v-2.344a1.172 1.172 0 1 1 2.344 0V16.1a1.172 1.172 0 1 1-2.344 0ZM2 16.1v-2.342a1.172 1.172 0 1 1 2.344 0V16.1A1.172 1.172 0 1 1 2 16.1Zm6.477-6.452a5.252 5.252 0 0 1 2.351-.577h2.344a5.252 5.252 0 0 1 2.351.577A14.711 14.711 0 0 0 12 11.107a14.712 14.712 0 0 0-3.523-1.459Zm.008-4.092A3.516 3.516 0 1 1 12 9.071a3.553 3.553 0 0 1-3.516-3.516Z" fill="currentColor"/></svg>
