<svg xmlns="http://www.w3.org/2000/svg" width="24" height="24" viewBox="0 0 24 24"><defs><style>.a{fill:none;}.b{fill:#fff;}</style></defs><rect class="a" width="24" height="24"/><path class="b" d="M14.378,0H.622A.6.6,0,0,0,0,.586V19.414A.6.6,0,0,0,.622,20H14.378A.6.6,0,0,0,15,19.414V.586A.6.6,0,0,0,14.378,0ZM5.635,3.516H9.365a.587.587,0,1,1,0,1.172H5.635a.587.587,0,1,1,0-1.172ZM12.257,16.3a12.011,12.011,0,0,1-1.1.785,3.265,3.265,0,0,1-1.556.6,1,1,0,0,1-.621-.2.8.8,0,0,1-.287-.794c-.158.107-.317.223-.432.308a7.274,7.274,0,0,1-.674.458.911.911,0,0,1-1.124,0c-.553-.477-.379-1.265-.238-1.9.017-.076.037-.165.054-.253a8.608,8.608,0,0,0-1.168.8c-.655.51-1.288,1.08-1.558,1.336a.649.649,0,0,1-.879,0,.563.563,0,0,1,0-.829c.306-.29,1.017-.928,1.739-1.483,1.4-1.072,1.966-1.178,2.34-1.14a.881.881,0,0,1,.656.377A1.831,1.831,0,0,1,7.437,15.8c-.022.1-.052.234-.076.368l.133-.1c.72-.527,1.465-1.072,2.155-.737a.755.755,0,0,1,.418.777,1.736,1.736,0,0,1-.036.243,8.693,8.693,0,0,0,1.414-.943.648.648,0,0,1,.877.061A.563.563,0,0,1,12.257,16.3Zm-.406-3.373H3.108a.587.587,0,1,1,0-1.172h8.743a.587.587,0,1,1,0,1.172Zm0-2.344H3.108a.587.587,0,1,1,0-1.172h8.743a.587.587,0,1,1,0,1.172Zm0-2.344H3.108a.587.587,0,1,1,0-1.172h8.743a.587.587,0,1,1,0,1.172Zm0,0" transform="translate(4.49 2)"/></svg>
